<?xml version="1.0" standalone="no"?>
<!DOCTYPE svg PUBLIC "-//W3C//DTD SVG 20010904//EN"
 "http://www.w3.org/TR/2001/REC-SVG-20010904/DTD/svg10.dtd">
<svg version="1.0" xmlns="http://www.w3.org/2000/svg"
 width="126.000000pt" height="100.000000pt" viewBox="0 0 126.000000 100.000000"
 preserveAspectRatio="xMidYMid meet">

<g transform="translate(0.000000,100.000000) scale(0.100000,-0.100000)"
fill="#000000" stroke="none">
<path d="M1015 866 c-16 -7 -57 -25 -90 -40 -33 -15 -73 -33 -90 -40 l-30 -14
38 -18 c20 -10 37 -22 37 -28 0 -20 -177 -184 -249 -231 -41 -26 -117 -70
-170 -97 -67 -34 -86 -47 -63 -44 19 3 48 12 65 20 18 9 59 25 92 37 61 22 77
31 173 88 29 17 55 31 57 31 10 0 122 90 154 124 38 39 55 43 85 21 10 -8 23
-12 27 -9 11 6 12 214 2 214 -5 -1 -21 -7 -38 -14z"/>
<path d="M902 343 l3 -208 78 -3 77 -3 0 211 0 210 -80 0 -80 0 2 -207z"/>
<path d="M715 417 c-3 -7 -4 -71 -3 -143 l3 -129 73 -3 73 -3 -3 143 -3 143
-68 3 c-49 2 -69 -1 -72 -11z"/>
<path d="M325 340 c-3 -5 1 -10 9 -10 9 0 16 5 16 10 0 6 -4 10 -9 10 -6 0
-13 -4 -16 -10z"/>
<path d="M520 235 l0 -105 75 0 75 0 0 105 0 105 -75 0 -75 0 0 -105z"/>
<path d="M330 205 l0 -66 73 3 72 3 0 60 0 60 -72 3 -73 3 0 -66z"/>
<path d="M140 185 l0 -46 73 3 72 3 0 40 0 40 -72 3 -73 3 0 -46z"/>
</g>
</svg>
