<?xml version="1.0" standalone="no"?>
<!DOCTYPE svg PUBLIC "-//W3C//DTD SVG 20010904//EN"
 "http://www.w3.org/TR/2001/REC-SVG-20010904/DTD/svg10.dtd">
<svg version="1.0" xmlns="http://www.w3.org/2000/svg"
 width="311.000000pt" height="77.000000pt" viewBox="0 0 311.000000 77.000000"
 preserveAspectRatio="xMidYMid meet">

<g transform="translate(0.000000,77.000000) scale(0.100000,-0.100000)"
fill="#000000" stroke="none">
<path d="M202 534 c-18 -12 -22 -25 -22 -68 0 -74 10 -80 139 -86 l106 -5 0
-40 0 -40 -100 0 c-97 0 -99 0 -105 25 -8 33 -34 32 -38 -2 -2 -17 4 -34 17
-47 19 -19 33 -21 125 -21 101 0 105 1 125 26 27 34 27 84 0 118 -20 25 -24
26 -125 26 l-104 0 0 45 0 46 103 -3 c98 -3 102 -4 105 -26 2 -15 9 -22 20
-20 25 5 26 44 3 67 -19 19 -33 21 -124 21 -77 0 -108 -4 -125 -16z"/>
<path d="M810 532 c0 -10 27 -44 60 -77 59 -59 60 -60 60 -116 0 -66 7 -89 26
-89 11 0 14 17 14 68 l0 68 65 64 c36 35 65 70 65 77 0 32 -27 20 -86 -38
l-64 -63 -63 62 c-34 34 -66 62 -70 62 -4 0 -7 -8 -7 -18z"/>
<path d="M572 410 c-64 -136 -71 -160 -49 -160 7 0 38 52 68 114 30 63 56 115
59 115 3 0 30 -50 60 -110 58 -117 66 -127 82 -111 13 13 -121 276 -143 280
-11 2 -33 -34 -77 -128z"/>
<path d="M1172 408 c-65 -138 -71 -158 -49 -158 7 0 38 52 69 115 l56 115 25
-43 c13 -23 41 -75 61 -115 33 -65 54 -85 62 -56 5 17 -131 269 -147 272 -11
2 -33 -35 -77 -130z"/>
<path d="M1507 372 c-23 -25 -22 -85 1 -105 12 -11 36 -17 70 -17 71 0 66 18
-5 22 l-58 3 0 45 0 45 58 3 c69 4 67 22 -2 22 -34 0 -53 -5 -64 -18z"/>
<path d="M1670 370 c-41 -41 -10 -120 47 -120 29 0 73 42 73 68 0 59 -79 93
-120 52z m88 -13 c17 -13 15 -52 -4 -71 -38 -39 -110 6 -85 53 21 38 54 45 89
18z"/>
<path d="M1812 320 c1 -63 2 -66 5 -22 2 28 7 52 11 52 3 0 30 -23 59 -52 l53
-52 -2 74 c-1 63 -2 66 -5 23 -2 -29 -7 -53 -11 -53 -3 0 -30 23 -59 52 l-53
52 2 -74z"/>
<path d="M1967 384 c-4 -4 -7 -20 -7 -35 0 -31 11 -36 80 -41 23 -2 35 -8 35
-18 0 -24 -83 -26 -101 -3 -14 17 -14 16 -12 -7 3 -24 6 -25 63 -25 l60 0 0
35 0 35 -52 3 c-45 3 -53 6 -53 23 0 16 7 19 43 19 24 0 49 -6 56 -12 10 -11
12 -9 9 7 -3 17 -12 20 -58 23 -31 2 -59 0 -63 -4z"/>
<path d="M2110 337 c0 -63 19 -87 68 -87 46 0 72 30 72 84 0 67 -18 66 -22 -1
l-3 -58 -45 0 -45 0 -3 58 c-4 72 -22 75 -22 4z"/>
<path d="M2272 323 l-2 -73 65 0 c37 0 65 4 65 10 0 6 -27 10 -60 10 l-59 0
-4 63 -3 62 -2 -72z"/>
<path d="M2405 380 c-4 -6 7 -10 24 -10 l31 0 0 -60 c0 -33 4 -60 10 -60 6 0
10 27 10 60 l0 60 31 0 c17 0 28 4 24 10 -3 6 -33 10 -65 10 -32 0 -62 -4 -65
-10z"/>
<path d="M2560 320 c0 -45 4 -69 10 -65 6 3 10 33 10 65 0 32 -4 62 -10 65 -6
4 -10 -20 -10 -65z"/>
<path d="M2602 320 c1 -63 2 -66 5 -22 2 28 7 52 11 52 3 0 30 -23 59 -52 l53
-52 -2 74 c-1 63 -2 66 -5 23 -2 -29 -7 -53 -11 -53 -3 0 -30 23 -59 52 l-53
52 2 -74z"/>
<path d="M2766 374 c-21 -20 -21 -88 0 -109 12 -11 31 -15 68 -13 l51 3 0 35
c0 33 -2 35 -37 38 -22 2 -38 -1 -38 -7 0 -6 14 -11 30 -11 23 0 30 -4 30 -20
0 -17 -7 -20 -45 -20 -39 0 -47 4 -57 25 -8 19 -8 31 0 50 10 22 18 25 62 25
27 0 50 5 50 10 0 17 -97 12 -114 -6z"/>
</g>
</svg>
